<?xml version="1.0" standalone="no"?>
<!DOCTYPE svg PUBLIC "-//W3C//DTD SVG 20010904//EN"
 "http://www.w3.org/TR/2001/REC-SVG-20010904/DTD/svg10.dtd">
<svg version="1.0" xmlns="http://www.w3.org/2000/svg"
 width="520.000000pt" height="139.000000pt" viewBox="0 0 520.000000 139.000000"
 preserveAspectRatio="xMidYMid meet">

<g transform="translate(0.000000,139.000000) scale(0.100000,-0.100000)"
fill="#000000" stroke="none">
<path d="M170 860 l0 -450 90 0 90 0 0 160 c0 178 8 208 60 235 46 24 87 19
121 -14 l29 -29 0 -176 0 -176 90 0 90 0 0 208 c0 192 -2 209 -21 241 -28 46
-55 67 -112 87 -74 25 -156 16 -212 -24 l-45 -32 0 210 0 210 -90 0 -90 0 0
-450z"/>
<path d="M970 944 c-50 -22 -109 -81 -136 -139 -19 -39 -24 -66 -23 -125 1
-86 11 -121 55 -183 77 -108 268 -132 361 -45 l23 21 0 -31 0 -32 90 0 90 0 0
270 0 270 -90 0 c-88 0 -90 -1 -90 -23 l0 -24 -56 29 c-46 22 -70 28 -123 28
-36 -1 -82 -8 -101 -16z m204 -148 c69 -29 98 -115 61 -185 -16 -32 -69 -61
-113 -61 -35 0 -92 36 -109 70 -31 61 -1 149 60 175 41 18 60 18 101 1z"/>
<path d="M1805 941 c-22 -10 -46 -25 -54 -34 -20 -25 -31 -21 -31 13 l0 30
-90 0 -90 0 0 -405 0 -405 90 0 90 0 0 154 c0 142 7 185 26 155 26 -43 187
-65 258 -35 50 21 104 74 134 130 23 44 27 63 27 136 0 73 -4 92 -27 136 -32
62 -93 116 -147 132 -56 17 -140 14 -186 -7z m74 -137 c18 -4 45 -19 60 -35
39 -39 47 -88 23 -142 -45 -100 -187 -100 -229 1 -27 65 0 141 60 167 37 17
44 17 86 9z"/>
<path d="M2512 945 c-18 -8 -47 -24 -63 -35 l-29 -21 0 30 0 31 -90 0 -90 0 0
-405 0 -405 90 0 90 0 0 159 0 160 56 -30 c109 -57 251 -31 322 59 49 62 65
107 65 192 0 120 -50 207 -145 254 -60 30 -151 35 -206 11z m82 -149 c101 -42
104 -180 6 -231 -37 -19 -73 -19 -110 0 -97 50 -95 188 4 231 40 17 59 17 100
0z"/>
<path d="M2860 945 c0 -2 56 -104 125 -226 69 -122 125 -223 125 -225 0 -2
-40 -81 -90 -175 -49 -94 -90 -173 -90 -175 0 -2 47 -4 104 -4 l103 0 173 333
c95 182 191 365 213 405 l39 73 -108 -3 -108 -3 -61 -132 c-33 -73 -63 -133
-67 -133 -3 0 -39 61 -79 135 l-73 135 -103 0 c-57 0 -103 -2 -103 -5z"/>
<path d="M3514 470 l-62 -140 32 0 c26 0 34 5 43 30 11 29 13 30 78 30 65 0
67 -1 78 -30 9 -25 17 -30 44 -30 l33 0 -26 58 c-14 31 -42 94 -61 140 -34 77
-38 82 -67 82 -30 0 -33 -3 -92 -140z m116 24 c11 -26 20 -48 20 -50 0 -2 -20
-4 -45 -4 -43 0 -44 1 -35 25 6 14 14 36 20 50 5 14 12 25 14 25 3 0 14 -21
26 -46z"/>
<path d="M3914 600 c-29 -12 -71 -64 -79 -99 -10 -49 11 -107 52 -138 45 -34
132 -39 177 -10 26 18 27 19 11 37 -16 18 -20 18 -46 5 -54 -29 -102 -14 -124
38 -17 41 -9 79 20 107 28 26 88 29 114 6 16 -15 19 -15 34 2 23 25 22 29 -13
47 -31 16 -112 19 -146 5z"/>
<path d="M4200 470 l0 -140 30 0 c28 0 30 2 30 40 0 38 1 40 33 40 27 0 36 -7
57 -40 21 -34 30 -40 58 -40 36 0 35 7 -7 60 l-19 24 29 33 c31 36 35 56 19
97 -17 45 -65 66 -152 66 l-78 0 0 -140z m166 65 c15 -23 15 -27 0 -50 -14
-21 -25 -25 -61 -25 l-45 0 0 50 0 50 45 0 c36 0 47 -4 61 -25z"/>
<path d="M4550 470 l0 -140 105 0 105 0 0 25 c0 24 -2 25 -75 25 l-75 0 0 35
0 35 65 0 c63 0 65 1 65 25 0 24 -2 25 -65 25 l-65 0 0 30 0 30 75 0 c73 0 75
1 75 25 l0 25 -105 0 -105 0 0 -140z"/>
<path d="M4898 595 c-32 -18 -45 -56 -32 -94 7 -21 22 -30 71 -46 75 -24 92
-38 73 -60 -16 -19 -60 -19 -105 -1 -34 15 -35 14 -41 -10 -8 -31 -8 -30 47
-45 109 -29 208 44 155 116 -8 11 -43 29 -77 40 -43 13 -65 26 -67 37 -5 26
38 39 84 26 32 -8 40 -7 51 8 20 27 2 38 -70 41 -42 2 -71 -2 -89 -12z"/>
</g>
</svg>
